<svg xmlns="http://www.w3.org/2000/svg" viewBox="0 0 258.76 139.39"><defs><style>.cls-1,.cls-2,.cls-4{fill:#fff;}.cls-2{font-size:26px;font-family:Georgia-Bold, Georgia;font-weight:700;letter-spacing:0.23em;}.cls-3{letter-spacing:0.25em;}.cls-4{font-size:14px;font-family:Georgia, Georgia;letter-spacing:0.4em;}</style></defs><title>Asset 1</title><g id="Layer_2" data-name="Layer 2"><g id="Layer_1-2" data-name="Layer 1"><path class="cls-1" d="M114.59,34.22c-1.62,6.17-3.09,12.48-4.71,18.65A70.76,70.76,0,0,0,135.33,45a52.86,52.86,0,0,0,10.16-6.5c2.79-2.41,7.78-7.53,5.55-12.68-2.1-4.87-9.9-6.26-17.18-6.29a83.1,83.1,0,0,0-13.73,1.26c-8.24,1.35-16.59,3.56-22.84,7.12-4.33,2.47-9,5.84-9,12.26,0,5.54,1.36,7.32,3.92,10.6l-1.38,5.69a21.66,21.66,0,0,1-8-9.9A38.7,38.7,0,0,0,96.71,69c3.12-11.63,6.39-23.22,9.31-34.82Z"/><path class="cls-1" d="M140.78,54.23c-9.89,5-21.91,7.92-34.26,10.06-.73,3.15-1.44,6.32-2.15,9.5a38.72,38.72,0,0,0,55.1-35.08c0-.42,0-.83,0-1.25C155.92,45.72,148.45,50.37,140.78,54.23Z"/><path class="cls-1" d="M127.37,7.82h4.82a55,55,0,0,1,15.44,3,38.7,38.7,0,0,0-65.3,23.26A28.73,28.73,0,0,1,87.25,25C95.7,14.31,109.95,9,127.37,7.82Z"/><text class="cls-2" transform="translate(0 114.54)">POM<tspan class="cls-3" x="84.1" y="0">P</tspan><tspan x="108.83" y="0">TONIAN</tspan></text><text class="cls-4" transform="translate(42 135.14)">FOOD SERVICE</text></g></g></svg>